<svg width="342" height="196" viewBox="0 0 342 196" fill="none" xmlns="http://www.w3.org/2000/svg">
<path d="M113.007 0H158.065V120.812C158.065 134.774 154.751 146.938 148.123 157.302C141.495 167.606 132.252 175.593 120.395 181.264C108.538 186.873 94.7657 189.677 79.0779 189.677C63.2076 189.677 49.3439 186.873 37.4867 181.264C25.6296 175.593 16.4175 167.606 9.85053 157.302C3.28351 146.938 0 134.774 0 120.812V0H45.1483V116.879C45.1483 123.342 46.5468 129.104 49.3438 134.164C52.2017 139.225 56.1845 143.188 61.2922 146.053C66.3999 148.919 72.3284 150.352 79.0779 150.352C85.8273 150.352 91.7254 148.919 96.7723 146.053C101.88 143.188 105.863 139.225 108.721 134.164C111.579 129.104 113.007 123.342 113.007 116.879V0Z" fill="#4493F8"/>
<rect x="233.935" width="44.2581" height="132.774" fill="#4493F8"/>
<path d="M256.064 196L182.145 129.613L329.984 129.613L256.064 196Z" fill="#4493F8"/>
</svg>
